<svg width="45" height="38" viewBox="0 0 45 38" fill="none" xmlns="http://www.w3.org/2000/svg">
<path d="M39.375 9.5H23.7656C23.8535 9.88594 23.9062 10.2793 23.9062 10.6875V11.875H26.7188H39.375C40.1484 11.875 40.7812 11.3406 40.7812 10.6875C40.7812 10.0344 40.1484 9.5 39.375 9.5ZM19.6875 10.6875C19.6875 9.37383 18.4307 8.3125 16.875 8.3125H14.7656C8.93848 8.3125 4.21875 12.298 4.21875 17.2188V20.7812C4.21875 24.6777 7.18066 27.9879 11.3115 29.1977C11.2676 28.9676 11.25 28.7375 11.25 28.5C11.25 27.0156 12.0586 25.6871 13.3242 24.8113C12.8936 24.1434 12.6562 23.3715 12.6562 22.5625C12.6562 21.4418 13.1221 20.4102 13.8867 19.5938C13.1133 18.7773 12.6562 17.7457 12.6562 16.625V13.6562C12.6562 12.6691 13.5967 11.875 14.7656 11.875C15.9346 11.875 16.875 12.6691 16.875 13.6562V16.625C16.875 17.2781 17.5078 17.8125 18.2812 17.8125C19.0547 17.8125 19.6875 17.2781 19.6875 16.625V13.6562V10.6875ZM16.875 4.75C18.457 4.75 19.916 5.19531 21.0938 5.9375H39.375C42.4775 5.9375 45 8.06758 45 10.6875C45 13.3074 42.4775 15.4375 39.375 15.4375H32.168C32.2822 15.816 32.3438 16.2168 32.3438 16.625C32.3438 18.5027 31.0518 20.1281 29.1797 20.9C29.4082 21.4195 29.5312 21.9762 29.5312 22.5625C29.5312 24.0469 28.7227 25.3754 27.457 26.2512C27.8877 26.9191 28.125 27.691 28.125 28.5C28.125 31.1199 25.6025 33.25 22.5 33.25H16.875H14.7656C6.60937 33.25 0 27.6688 0 20.7812V17.2188C0 10.3312 6.60937 4.75 14.7656 4.75H16.875ZM22.5 29.6875C23.2734 29.6875 23.9062 29.1531 23.9062 28.5C23.9062 27.8469 23.2734 27.3125 22.5 27.3125H18.2812H16.875C16.1016 27.3125 15.4688 27.8469 15.4688 28.5C15.4688 29.1531 16.1016 29.6875 16.875 29.6875H22.5ZM23.9062 16.625C23.9062 17.0332 23.8447 17.434 23.7305 17.8125H23.9062H26.7188C27.4922 17.8125 28.125 17.2781 28.125 16.625C28.125 15.9719 27.4922 15.4375 26.7188 15.4375H23.9062V16.625ZM21.7969 21.375H18.2812C17.5078 21.375 16.875 21.9094 16.875 22.5625C16.875 23.2156 17.5078 23.75 18.2812 23.75H22.5H23.9062C24.6797 23.75 25.3125 23.2156 25.3125 22.5625C25.3125 21.9094 24.6797 21.375 23.9062 21.375H21.7969Z" fill="white"/>
</svg>
