<svg width="76" height="67" viewBox="0 0 76 67" fill="none" xmlns="http://www.w3.org/2000/svg">
<g filter="url(#filter0_d_369_5)">
<ellipse cx="38" cy="33.5" rx="31" ry="26.5" fill="white"/>
</g>
<path d="M25.75 25.7188C25.2344 25.7188 24.8125 26.1266 24.8125 26.625V27.8768L34.9199 35.8971C36.1328 36.86 37.873 36.86 39.0859 35.8971L49.1875 27.8768V26.625C49.1875 26.1266 48.7656 25.7188 48.25 25.7188H25.75ZM24.8125 31.3941V41.125C24.8125 41.6234 25.2344 42.0312 25.75 42.0312H48.25C48.7656 42.0312 49.1875 41.6234 49.1875 41.125V31.3941L40.8672 37.9984C38.6172 39.7826 35.377 39.7826 33.1328 37.9984L24.8125 31.3941ZM22 26.625C22 24.6256 23.6816 23 25.75 23H48.25C50.3184 23 52 24.6256 52 26.625V41.125C52 43.1244 50.3184 44.75 48.25 44.75H25.75C23.6816 44.75 22 43.1244 22 41.125V26.625Z" fill="#308D89"/>
<defs>
<filter id="filter0_d_369_5" x="0" y="0" width="76" height="67" filterUnits="userSpaceOnUse" color-interpolation-filters="sRGB">
<feFlood flood-opacity="0" result="BackgroundImageFix"/>
<feColorMatrix in="SourceAlpha" type="matrix" values="0 0 0 0 0 0 0 0 0 0 0 0 0 0 0 0 0 0 127 0" result="hardAlpha"/>
<feMorphology radius="3" operator="dilate" in="SourceAlpha" result="effect1_dropShadow_369_5"/>
<feOffset/>
<feGaussianBlur stdDeviation="2"/>
<feComposite in2="hardAlpha" operator="out"/>
<feColorMatrix type="matrix" values="0 0 0 0 0 0 0 0 0 0 0 0 0 0 0 0 0 0 0.15 0"/>
<feBlend mode="normal" in2="BackgroundImageFix" result="effect1_dropShadow_369_5"/>
<feBlend mode="normal" in="SourceGraphic" in2="effect1_dropShadow_369_5" result="shape"/>
</filter>
</defs>
</svg>
