<svg width="76" height="67" viewBox="0 0 76 67" fill="none" xmlns="http://www.w3.org/2000/svg">
<g filter="url(#filter0_d_77_107)">
<ellipse cx="38" cy="33.5" rx="31" ry="26.5" fill="white"/>
</g>
<g filter="url(#filter1_d_77_107)">
<path d="M38.9375 30.7404C42.3896 30.7404 45.1875 27.8887 45.1875 24.3702C45.1875 20.8517 42.3896 18 38.9375 18C35.4854 18 32.6875 20.8517 32.6875 24.3702C32.6875 27.8887 35.4854 30.7404 38.9375 30.7404ZM43.3125 32.3329H42.4971C41.4131 32.8406 40.207 33.1292 38.9375 33.1292C37.668 33.1292 36.4668 32.8406 35.3779 32.3329H34.5625C30.9395 32.3329 28 35.3289 28 39.0216V41.0919C28 42.4108 29.0498 43.4808 30.3438 43.4808H47.5312C48.8252 43.4808 49.875 42.4108 49.875 41.0919V39.0216C49.875 35.3289 46.9355 32.3329 43.3125 32.3329Z" fill="#308D89"/>
</g>
<defs>
<filter id="filter0_d_77_107" x="0" y="0" width="76" height="67" filterUnits="userSpaceOnUse" color-interpolation-filters="sRGB">
<feFlood flood-opacity="0" result="BackgroundImageFix"/>
<feColorMatrix in="SourceAlpha" type="matrix" values="0 0 0 0 0 0 0 0 0 0 0 0 0 0 0 0 0 0 127 0" result="hardAlpha"/>
<feMorphology radius="3" operator="dilate" in="SourceAlpha" result="effect1_dropShadow_77_107"/>
<feOffset/>
<feGaussianBlur stdDeviation="2"/>
<feComposite in2="hardAlpha" operator="out"/>
<feColorMatrix type="matrix" values="0 0 0 0 0 0 0 0 0 0 0 0 0 0 0 0 0 0 0.15 0"/>
<feBlend mode="normal" in2="BackgroundImageFix" result="effect1_dropShadow_77_107"/>
<feBlend mode="normal" in="SourceGraphic" in2="effect1_dropShadow_77_107" result="shape"/>
</filter>
<filter id="filter1_d_77_107" x="24" y="18" width="29.875" height="33.4808" filterUnits="userSpaceOnUse" color-interpolation-filters="sRGB">
<feFlood flood-opacity="0" result="BackgroundImageFix"/>
<feColorMatrix in="SourceAlpha" type="matrix" values="0 0 0 0 0 0 0 0 0 0 0 0 0 0 0 0 0 0 127 0" result="hardAlpha"/>
<feOffset dy="4"/>
<feGaussianBlur stdDeviation="2"/>
<feComposite in2="hardAlpha" operator="out"/>
<feColorMatrix type="matrix" values="0 0 0 0 0 0 0 0 0 0 0 0 0 0 0 0 0 0 0.25 0"/>
<feBlend mode="normal" in2="BackgroundImageFix" result="effect1_dropShadow_77_107"/>
<feBlend mode="normal" in="SourceGraphic" in2="effect1_dropShadow_77_107" result="shape"/>
</filter>
</defs>
</svg>
