<svg width="209" height="73" viewBox="0 0 209 73" fill="none" xmlns="http://www.w3.org/2000/svg">
<path d="M2.016 25V8.2H4.824L13.584 20.416L13.536 8.2H16.248V25H13.68L4.68 12.448L4.728 25H2.016ZM25.4338 25.216C24.2978 25.216 23.2658 24.944 22.3378 24.4C21.4258 23.856 20.7058 23.12 20.1778 22.192C19.6498 21.248 19.3858 20.184 19.3858 19C19.3858 17.816 19.6498 16.76 20.1778 15.832C20.7058 14.888 21.4258 14.144 22.3378 13.6C23.2498 13.056 24.2818 12.784 25.4338 12.784C26.5858 12.784 27.6098 13.056 28.5058 13.6C29.4178 14.144 30.1378 14.888 30.6658 15.832C31.1938 16.76 31.4578 17.816 31.4578 19C31.4578 20.184 31.1938 21.248 30.6658 22.192C30.1378 23.12 29.4178 23.856 28.5058 24.4C27.6098 24.944 26.5858 25.216 25.4338 25.216ZM25.4338 22.912C26.0898 22.912 26.6658 22.744 27.1618 22.408C27.6738 22.072 28.0738 21.608 28.3618 21.016C28.6498 20.408 28.7938 19.736 28.7938 19C28.7938 18.248 28.6498 17.584 28.3618 17.008C28.0738 16.416 27.6738 15.952 27.1618 15.616C26.6658 15.264 26.0898 15.088 25.4338 15.088C24.7778 15.088 24.1938 15.264 23.6818 15.616C23.1698 15.952 22.7698 16.416 22.4818 17.008C22.1938 17.584 22.0498 18.248 22.0498 19C22.0498 19.752 22.1938 20.424 22.4818 21.016C22.7698 21.608 23.1698 22.072 23.6818 22.408C24.1938 22.744 24.7778 22.912 25.4338 22.912ZM38.8796 25.24C37.6636 25.24 36.7436 24.96 36.1196 24.4C35.4956 23.824 35.1836 22.984 35.1836 21.88V15.136H32.7836V12.976H35.1836V9.664L37.8956 9.088V12.976H41.2556V15.136H37.8956V21.28C37.8956 21.872 38.0236 22.296 38.2796 22.552C38.5516 22.792 38.9836 22.912 39.5756 22.912C39.8476 22.912 40.0956 22.896 40.3196 22.864C40.5596 22.816 40.8556 22.736 41.2076 22.624V24.904C40.8716 25.016 40.4876 25.096 40.0556 25.144C39.6396 25.208 39.2476 25.24 38.8796 25.24ZM49.0376 25.24C47.8856 25.24 46.8456 24.968 45.9176 24.424C44.9896 23.864 44.2536 23.12 43.7096 22.192C43.1656 21.248 42.8936 20.184 42.8936 19C42.8936 17.816 43.1496 16.76 43.6616 15.832C44.1736 14.904 44.8696 14.168 45.7496 13.624C46.6456 13.064 47.6376 12.784 48.7256 12.784C49.8456 12.784 50.8296 13.056 51.6776 13.6C52.5416 14.144 53.2136 14.88 53.6936 15.808C54.1896 16.736 54.4376 17.8 54.4376 19V19.648H45.5576C45.6536 20.304 45.8616 20.888 46.1816 21.4C46.5176 21.896 46.9416 22.288 47.4536 22.576C47.9816 22.864 48.5496 23.008 49.1576 23.008C49.7176 23.008 50.2456 22.912 50.7416 22.72C51.2536 22.512 51.6776 22.232 52.0136 21.88L53.7896 23.488C53.0536 24.096 52.3016 24.544 51.5336 24.832C50.7816 25.104 49.9496 25.24 49.0376 25.24ZM45.5816 17.968H51.8696C51.7736 17.392 51.5736 16.88 51.2696 16.432C50.9816 15.984 50.6136 15.632 50.1656 15.376C49.7336 15.12 49.2536 14.992 48.7256 14.992C48.1976 14.992 47.7096 15.12 47.2616 15.376C46.8296 15.616 46.4696 15.96 46.1816 16.408C45.8936 16.856 45.6936 17.376 45.5816 17.968ZM57.2034 25V12.976H59.9154V15.568C60.2674 14.656 60.7234 13.96 61.2834 13.48C61.8434 13 62.4914 12.76 63.2274 12.76C63.4674 12.776 63.6754 12.8 63.8514 12.832C64.0274 12.848 64.2114 12.904 64.4034 13V15.376C64.1954 15.28 63.9554 15.208 63.6834 15.16C63.4274 15.112 63.1714 15.088 62.9154 15.088C62.2594 15.088 61.6674 15.264 61.1394 15.616C60.6274 15.968 60.2194 16.456 59.9154 17.08V25H57.2034ZM72.0159 25V7.792L74.7279 7.312V25H72.0159ZM77.5309 13.336L79.1389 7H81.8749L79.5469 13.336H77.5309ZM81.0268 25L87.6268 8.2H90.9628L97.4668 25H94.3708L92.6428 20.296H85.7548L84.0268 25H81.0268ZM86.5948 18.04H91.8508L89.2108 10.936L86.5948 18.04ZM99.2972 30.016V12.976H101.961V14.68C102.409 14.104 102.953 13.664 103.593 13.36C104.249 13.04 104.953 12.88 105.705 12.88C106.729 12.88 107.649 13.152 108.465 13.696C109.281 14.24 109.929 14.976 110.409 15.904C110.905 16.832 111.153 17.864 111.153 19C111.153 20.136 110.897 21.168 110.385 22.096C109.889 23.024 109.217 23.76 108.369 24.304C107.521 24.848 106.577 25.12 105.537 25.12C104.817 25.12 104.161 24.992 103.569 24.736C102.977 24.464 102.457 24.08 102.009 23.584V30.016H99.2972ZM104.889 22.84C105.577 22.84 106.185 22.68 106.713 22.36C107.257 22.024 107.681 21.568 107.985 20.992C108.305 20.4 108.465 19.736 108.465 19C108.465 18.264 108.305 17.608 107.985 17.032C107.681 16.456 107.257 16 106.713 15.664C106.185 15.328 105.577 15.16 104.889 15.16C104.297 15.16 103.753 15.28 103.257 15.52C102.777 15.744 102.361 16.072 102.009 16.504V21.52C102.361 21.936 102.785 22.264 103.281 22.504C103.777 22.728 104.313 22.84 104.889 22.84ZM113.969 30.016V12.976H116.633V14.68C117.081 14.104 117.625 13.664 118.265 13.36C118.921 13.04 119.625 12.88 120.377 12.88C121.401 12.88 122.321 13.152 123.137 13.696C123.953 14.24 124.601 14.976 125.081 15.904C125.577 16.832 125.825 17.864 125.825 19C125.825 20.136 125.569 21.168 125.057 22.096C124.561 23.024 123.889 23.76 123.041 24.304C122.193 24.848 121.249 25.12 120.209 25.12C119.489 25.12 118.833 24.992 118.241 24.736C117.649 24.464 117.129 24.08 116.681 23.584V30.016H113.969ZM119.561 22.84C120.249 22.84 120.857 22.68 121.385 22.36C121.929 22.024 122.353 21.568 122.657 20.992C122.977 20.4 123.137 19.736 123.137 19C123.137 18.264 122.977 17.608 122.657 17.032C122.353 16.456 121.929 16 121.385 15.664C120.857 15.328 120.249 15.16 119.561 15.16C118.969 15.16 118.425 15.28 117.929 15.52C117.449 15.744 117.033 16.072 116.681 16.504V21.52C117.033 21.936 117.457 22.264 117.953 22.504C118.449 22.728 118.985 22.84 119.561 22.84ZM128.641 25V7.792L131.353 7.312V25H128.641ZM134.664 25V12.976H137.376V25H134.664ZM136.032 10.528C135.568 10.528 135.168 10.368 134.832 10.048C134.512 9.712 134.352 9.32 134.352 8.872C134.352 8.408 134.512 8.016 134.832 7.696C135.168 7.36 135.568 7.192 136.032 7.192C136.496 7.192 136.888 7.36 137.208 7.696C137.544 8.016 137.712 8.4 137.712 8.848C137.712 9.312 137.544 9.712 137.208 10.048C136.888 10.368 136.496 10.528 136.032 10.528ZM146.255 25.216C145.119 25.216 144.087 24.944 143.159 24.4C142.247 23.84 141.519 23.088 140.975 22.144C140.447 21.2 140.183 20.152 140.183 19C140.183 17.832 140.447 16.784 140.975 15.856C141.519 14.912 142.247 14.168 143.159 13.624C144.087 13.064 145.119 12.784 146.255 12.784C147.183 12.784 148.063 12.96 148.895 13.312C149.743 13.664 150.463 14.168 151.055 14.824L149.375 16.576C148.959 16.112 148.495 15.76 147.983 15.52C147.471 15.28 146.927 15.16 146.351 15.16C145.695 15.16 145.103 15.336 144.575 15.688C144.063 16.024 143.655 16.48 143.351 17.056C143.047 17.632 142.895 18.28 142.895 19C142.895 19.72 143.047 20.376 143.351 20.968C143.655 21.544 144.063 22 144.575 22.336C145.103 22.672 145.695 22.84 146.351 22.84C146.927 22.84 147.471 22.72 147.983 22.48C148.495 22.24 148.959 21.896 149.375 21.448L151.055 23.176C150.463 23.832 149.743 24.336 148.895 24.688C148.063 25.04 147.183 25.216 146.255 25.216ZM156.945 25.216C156.113 25.216 155.369 25.064 154.713 24.76C154.073 24.44 153.569 24.008 153.201 23.464C152.849 22.904 152.673 22.264 152.673 21.544C152.673 20.824 152.857 20.2 153.225 19.672C153.609 19.144 154.145 18.736 154.833 18.448C155.521 18.16 156.337 18.016 157.281 18.016C157.841 18.016 158.393 18.08 158.937 18.208C159.481 18.32 160.009 18.512 160.521 18.784V17.44C160.521 16.64 160.289 16.04 159.825 15.64C159.377 15.24 158.689 15.04 157.761 15.04C157.265 15.04 156.729 15.12 156.153 15.28C155.593 15.424 154.961 15.656 154.257 15.976L153.297 14.008C155.057 13.192 156.721 12.784 158.289 12.784C159.857 12.784 161.065 13.168 161.913 13.936C162.777 14.688 163.209 15.76 163.209 17.152V25H160.521V23.752C160.009 24.248 159.457 24.616 158.865 24.856C158.273 25.096 157.633 25.216 156.945 25.216ZM155.217 21.496C155.217 22.056 155.441 22.496 155.889 22.816C156.337 23.136 156.937 23.296 157.689 23.296C158.233 23.296 158.737 23.216 159.201 23.056C159.681 22.88 160.121 22.624 160.521 22.288V20.344C160.105 20.152 159.673 20.008 159.225 19.912C158.777 19.816 158.289 19.768 157.761 19.768C156.977 19.768 156.353 19.92 155.889 20.224C155.441 20.528 155.217 20.952 155.217 21.496ZM171.325 25.24C170.109 25.24 169.189 24.96 168.565 24.4C167.941 23.824 167.629 22.984 167.629 21.88V15.136H165.229V12.976H167.629V9.664L170.341 9.088V12.976H173.701V15.136H170.341V21.28C170.341 21.872 170.469 22.296 170.725 22.552C170.997 22.792 171.429 22.912 172.021 22.912C172.293 22.912 172.541 22.896 172.765 22.864C173.005 22.816 173.301 22.736 173.653 22.624V24.904C173.317 25.016 172.933 25.096 172.501 25.144C172.085 25.208 171.693 25.24 171.325 25.24ZM176.054 25V12.976H178.766V25H176.054ZM177.422 10.528C176.958 10.528 176.558 10.368 176.222 10.048C175.902 9.712 175.742 9.32 175.742 8.872C175.742 8.408 175.902 8.016 176.222 7.696C176.558 7.36 176.958 7.192 177.422 7.192C177.886 7.192 178.278 7.36 178.598 7.696C178.934 8.016 179.102 8.4 179.102 8.848C179.102 9.312 178.934 9.712 178.598 10.048C178.278 10.368 177.886 10.528 177.422 10.528ZM187.621 25.216C186.485 25.216 185.453 24.944 184.525 24.4C183.613 23.856 182.893 23.12 182.365 22.192C181.837 21.248 181.573 20.184 181.573 19C181.573 17.816 181.837 16.76 182.365 15.832C182.893 14.888 183.613 14.144 184.525 13.6C185.437 13.056 186.469 12.784 187.621 12.784C188.773 12.784 189.797 13.056 190.693 13.6C191.605 14.144 192.325 14.888 192.853 15.832C193.381 16.76 193.645 17.816 193.645 19C193.645 20.184 193.381 21.248 192.853 22.192C192.325 23.12 191.605 23.856 190.693 24.4C189.797 24.944 188.773 25.216 187.621 25.216ZM187.621 22.912C188.277 22.912 188.853 22.744 189.349 22.408C189.861 22.072 190.261 21.608 190.549 21.016C190.837 20.408 190.981 19.736 190.981 19C190.981 18.248 190.837 17.584 190.549 17.008C190.261 16.416 189.861 15.952 189.349 15.616C188.853 15.264 188.277 15.088 187.621 15.088C186.965 15.088 186.381 15.264 185.869 15.616C185.357 15.952 184.957 16.416 184.669 17.008C184.381 17.584 184.237 18.248 184.237 19C184.237 19.752 184.381 20.424 184.669 21.016C184.957 21.608 185.357 22.072 185.869 22.408C186.381 22.744 186.965 22.912 187.621 22.912ZM196.446 25V12.976H199.158V14.944C199.622 14.224 200.174 13.688 200.814 13.336C201.454 12.968 202.174 12.784 202.974 12.784C203.79 12.784 204.51 12.968 205.134 13.336C205.758 13.688 206.246 14.184 206.598 14.824C206.966 15.464 207.15 16.216 207.15 17.08V25H204.414V17.848C204.414 16.968 204.174 16.272 203.694 15.76C203.214 15.232 202.574 14.968 201.774 14.968C201.23 14.968 200.734 15.096 200.286 15.352C199.854 15.592 199.478 15.952 199.158 16.432V25H196.446Z" fill="black"/>
<path d="M33.3646 50.7731L30.5304 56.5196L24.1893 57.4441C23.0521 57.6091 22.5964 59.011 23.421 59.8139L28.0087 64.2844L26.9236 70.5995C26.7283 71.741 27.9306 72.596 28.9375 72.0622L34.6103 69.0804L40.283 72.0622C41.29 72.5917 42.4922 71.741 42.2969 70.5995L41.2118 64.2844L45.7995 59.8139C46.6242 59.011 46.1684 57.6091 45.0313 57.4441L38.6901 56.5196L35.8559 50.7731C35.3481 49.7488 33.8768 49.7358 33.3646 50.7731Z" fill="#308D89"/>
<path d="M66.3646 50.7731L63.5304 56.5196L57.1893 57.4441C56.0521 57.6091 55.5964 59.011 56.421 59.8139L61.0087 64.2844L59.9236 70.5995C59.7283 71.741 60.9306 72.596 61.9375 72.0622L67.6103 69.0804L73.283 72.0622C74.29 72.5917 75.4922 71.741 75.2969 70.5995L74.2118 64.2844L78.7995 59.8139C79.6242 59.011 79.1684 57.6091 78.0313 57.4441L71.6901 56.5196L68.8559 50.7731C68.3481 49.7488 66.8768 49.7358 66.3646 50.7731Z" fill="#308D89"/>
<path d="M99.3646 50.7731L96.5304 56.5196L90.1893 57.4441C89.0521 57.6091 88.5964 59.011 89.421 59.8139L94.0087 64.2844L92.9236 70.5995C92.7283 71.741 93.9306 72.596 94.9375 72.0622L100.61 69.0804L106.283 72.0622C107.29 72.5917 108.492 71.741 108.297 70.5995L107.212 64.2844L111.799 59.8139C112.624 59.011 112.168 57.6091 111.031 57.4441L104.69 56.5196L101.856 50.7731C101.348 49.7488 99.8768 49.7358 99.3646 50.7731Z" fill="#308D89"/>
<path d="M129.603 57.0144L129.863 56.9765L129.979 56.7408L132.813 50.9945C133.139 50.334 134.081 50.3363 134.408 50.9948C134.408 50.995 134.408 50.9951 134.408 50.9952L137.242 56.7408L137.358 56.9765L137.618 57.0144L143.959 57.9389L143.96 57.9389C144.686 58.0443 144.979 58.9417 144.451 59.4557L144.451 59.4558L139.863 63.9263L139.675 64.1099L139.719 64.3691L140.804 70.6838C140.928 71.4102 140.162 71.9595 139.516 71.6196L139.516 71.6196L133.843 68.6378L133.61 68.5155L133.378 68.6378L127.705 71.6196L127.703 71.6204C127.061 71.9612 126.292 71.4133 126.416 70.6838L127.501 64.3691L127.546 64.1099L127.358 63.9263L122.77 59.4558L122.77 59.4557C122.242 58.9417 122.535 58.0443 123.261 57.9389L123.261 57.9389L129.603 57.0144Z" fill="white" stroke="black"/>
<path d="M162.603 57.0144L162.863 56.9765L162.979 56.7408L165.813 50.9945C166.139 50.334 167.081 50.3363 167.408 50.9948C167.408 50.995 167.408 50.9951 167.408 50.9952L170.242 56.7408L170.358 56.9765L170.618 57.0144L176.959 57.9389L176.96 57.9389C177.686 58.0443 177.979 58.9417 177.451 59.4557L177.451 59.4558L172.863 63.9263L172.675 64.1099L172.719 64.3691L173.804 70.6838C173.928 71.4102 173.162 71.9595 172.516 71.6196L172.516 71.6196L166.843 68.6378L166.61 68.5155L166.378 68.6378L160.705 71.6196L160.703 71.6204C160.061 71.9612 159.292 71.4133 159.416 70.6838L160.501 64.3691L160.546 64.1099L160.358 63.9263L155.77 59.4558L155.77 59.4557C155.242 58.9417 155.535 58.0443 156.261 57.9389L156.261 57.9389L162.603 57.0144Z" fill="white" stroke="black"/>
</svg>
