<svg width="37" height="42" viewBox="0 0 37 42" fill="none" xmlns="http://www.w3.org/2000/svg">
<path d="M18.3395 16V10H12.8377V6H18.3395V0H22.0074V6H27.5093V10H22.0074V16H18.3395ZM11.0037 42C9.99504 42 9.13156 41.6083 8.41326 40.825C7.69496 40.0417 7.33581 39.1 7.33581 38C7.33581 36.9 7.69496 35.9583 8.41326 35.175C9.13156 34.3917 9.99504 34 11.0037 34C12.0124 34 12.8759 34.3917 13.5942 35.175C14.3125 35.9583 14.6716 36.9 14.6716 38C14.6716 39.1 14.3125 40.0417 13.5942 40.825C12.8759 41.6083 12.0124 42 11.0037 42ZM29.3432 42C28.3346 42 27.4711 41.6083 26.7528 40.825C26.0345 40.0417 25.6753 39.1 25.6753 38C25.6753 36.9 26.0345 35.9583 26.7528 35.175C27.4711 34.3917 28.3346 34 29.3432 34C30.3519 34 31.2154 34.3917 31.9337 35.175C32.652 35.9583 33.0112 36.9 33.0112 38C33.0112 39.1 32.652 40.0417 31.9337 40.825C31.2154 41.6083 30.3519 42 29.3432 42ZM11.0037 32C9.62825 32 8.57373 31.3417 7.84015 30.025C7.10657 28.7083 7.09128 27.4 7.7943 26.1L10.2701 21.2L3.66791 6H0V2H6.0062L13.8005 20H26.684L33.7906 6L37 7.9L29.8934 21.9C29.5572 22.5667 29.114 23.0833 28.5638 23.45C28.0136 23.8167 27.387 24 26.684 24H13.0211L11.0037 28H33.0112V32H11.0037Z" fill="#308D89"/>
</svg>
