<svg width="20" height="25" viewBox="0 0 20 25" fill="none" xmlns="http://www.w3.org/2000/svg">
<path d="M4.28571 7.14286C3.09524 7.14286 2.08333 6.79563 1.25 6.10119C0.416667 5.40675 0 4.56349 0 3.57143C0 2.57937 0.416667 1.73611 1.25 1.04167C2.08333 0.347222 3.09524 0 4.28571 0C5.19048 0 6.01191 0.223214 6.75 0.669643C7.4881 1.11607 8.02381 1.68651 8.35714 2.38095H20V4.7619H18.5714V7.14286H15.7143V4.7619H8.35714C8.02381 5.45635 7.4881 6.02679 6.75 6.47321C6.01191 6.91964 5.19048 7.14286 4.28571 7.14286ZM4.28571 4.7619C4.69048 4.7619 5.02976 4.64782 5.30357 4.41964C5.57738 4.19147 5.71429 3.90873 5.71429 3.57143C5.71429 3.23413 5.57738 2.95139 5.30357 2.72321C5.02976 2.49504 4.69048 2.38095 4.28571 2.38095C3.88095 2.38095 3.54167 2.49504 3.26786 2.72321C2.99405 2.95139 2.85714 3.23413 2.85714 3.57143C2.85714 3.90873 2.99405 4.19147 3.26786 4.41964C3.54167 4.64782 3.88095 4.7619 4.28571 4.7619ZM5.71429 19.6429C6.11905 19.6429 6.45833 19.5288 6.73214 19.3006C7.00595 19.0724 7.14286 18.7897 7.14286 18.4524C7.14286 18.1151 7.00595 17.8323 6.73214 17.6042C6.45833 17.376 6.11905 17.2619 5.71429 17.2619C5.30952 17.2619 4.97024 17.376 4.69643 17.6042C4.42262 17.8323 4.28571 18.1151 4.28571 18.4524C4.28571 18.7897 4.42262 19.0724 4.69643 19.3006C4.97024 19.5288 5.30952 19.6429 5.71429 19.6429ZM14.2857 19.6429C14.6905 19.6429 15.0298 19.5288 15.3036 19.3006C15.5774 19.0724 15.7143 18.7897 15.7143 18.4524C15.7143 18.1151 15.5774 17.8323 15.3036 17.6042C15.0298 17.376 14.6905 17.2619 14.2857 17.2619C13.881 17.2619 13.5417 17.376 13.2679 17.6042C12.994 17.8323 12.8571 18.1151 12.8571 18.4524C12.8571 18.7897 12.994 19.0724 13.2679 19.3006C13.5417 19.5288 13.881 19.6429 14.2857 19.6429ZM0 16.1905L2.35714 10.4762C2.47619 10.1984 2.67262 9.97024 2.94643 9.79167C3.22024 9.6131 3.52381 9.52381 3.85714 9.52381H16.1429C16.4762 9.52381 16.7798 9.6131 17.0536 9.79167C17.3274 9.97024 17.5238 10.1984 17.6429 10.4762L20 16.1905V24.0476C20 24.3254 19.8929 24.5536 19.6786 24.7321C19.4643 24.9107 19.1905 25 18.8571 25H18.2857C17.9524 25 17.6786 24.9107 17.4643 24.7321C17.25 24.5536 17.1429 24.3254 17.1429 24.0476V22.619H2.85714V24.0476C2.85714 24.3254 2.75 24.5536 2.53571 24.7321C2.32143 24.9107 2.04762 25 1.71429 25H1.14286C0.809524 25 0.535714 24.9107 0.321429 24.7321C0.107143 24.5536 0 24.3254 0 24.0476V16.1905ZM3.78571 14.2857H16.2143L15.2143 11.9048H4.78571L3.78571 14.2857ZM2.85714 20.2381H17.1429V16.6667H2.85714V20.2381Z" fill="#308D89"/>
</svg>
